<svg width="81" height="24" viewBox="0 0 81 24" fill="none" xmlns="http://www.w3.org/2000/svg">
  <path
    d="M45.216 20H43.176L41.496 15.608H34.32L32.64 20H30.624L36.792 4.16H39.072L45.216 20ZM35.016 13.808H40.8L37.896 6.008L35.016 13.808ZM52.7558 20.24C52.0838 20.24 51.4598 20.12 50.8838 19.88C50.3078 19.64 49.8118 19.304 49.3958 18.872C48.9798 18.44 48.6678 17.952 48.4598 17.408L48.7238 17.072L48.5558 20H46.8758V2.48H48.7958V10.712L48.5558 10.352C48.8758 9.6 49.4118 8.984 50.1638 8.504C50.9318 8.008 51.8038 7.76 52.7798 7.76C53.7718 7.76 54.6838 8.008 55.5158 8.504C56.3478 9 57.0118 9.712 57.5078 10.64C58.0038 11.568 58.2518 12.688 58.2518 14C58.2518 15.296 57.9958 16.416 57.4838 17.36C56.9878 18.288 56.3238 19 55.4918 19.496C54.6598 19.992 53.7478 20.24 52.7558 20.24ZM52.5638 18.56C53.7478 18.56 54.6678 18.144 55.3238 17.312C55.9958 16.48 56.3318 15.376 56.3318 14C56.3318 12.624 56.0038 11.52 55.3478 10.688C54.6918 9.856 53.7718 9.44 52.5878 9.44C51.8358 9.44 51.1718 9.632 50.5958 10.016C50.0358 10.4 49.5958 10.936 49.2758 11.624C48.9558 12.312 48.7958 13.12 48.7958 14.048C48.7958 14.96 48.9478 15.76 49.2518 16.448C49.5718 17.12 50.0118 17.64 50.5718 18.008C51.1478 18.376 51.8118 18.56 52.5638 18.56ZM60.7226 20V8H62.2826L62.5466 9.968C62.8826 9.232 63.3706 8.68 64.0106 8.312C64.6666 7.944 65.4586 7.76 66.3866 7.76C66.5946 7.76 66.8186 7.776 67.0586 7.808C67.3146 7.84 67.5306 7.904 67.7066 8L67.3706 9.752C67.1946 9.688 67.0026 9.64 66.7946 9.608C66.5866 9.576 66.2906 9.56 65.9066 9.56C65.4106 9.56 64.9066 9.704 64.3946 9.992C63.8986 10.28 63.4826 10.72 63.1466 11.312C62.8106 11.888 62.6426 12.624 62.6426 13.52V20H60.7226ZM75.9994 12.248C75.9994 11.352 75.7594 10.664 75.2794 10.184C74.7994 9.688 74.1194 9.44 73.2394 9.44C72.4074 9.44 71.7034 9.624 71.1274 9.992C70.5514 10.344 70.1274 10.92 69.8554 11.72L68.2954 10.76C68.6154 9.864 69.2074 9.144 70.0714 8.6C70.9354 8.04 72.0074 7.76 73.2874 7.76C74.1514 7.76 74.9354 7.912 75.6394 8.216C76.3434 8.504 76.8954 8.952 77.2954 9.56C77.7114 10.152 77.9194 10.92 77.9194 11.864V17.672C77.9194 18.248 78.2234 18.536 78.8314 18.536C79.1354 18.536 79.4314 18.496 79.7194 18.416L79.6234 19.928C79.3034 20.088 78.8874 20.168 78.3754 20.168C77.9114 20.168 77.4954 20.08 77.1274 19.904C76.7594 19.728 76.4714 19.464 76.2634 19.112C76.0554 18.744 75.9514 18.288 75.9514 17.744V17.504L76.4314 17.576C76.2394 18.2 75.9114 18.712 75.4474 19.112C74.9834 19.496 74.4634 19.784 73.8874 19.976C73.3114 20.152 72.7434 20.24 72.1834 20.24C71.4794 20.24 70.8234 20.12 70.2154 19.88C69.6074 19.64 69.1194 19.28 68.7514 18.8C68.3994 18.304 68.2234 17.696 68.2234 16.976C68.2234 16.08 68.5194 15.344 69.1114 14.768C69.7194 14.176 70.5594 13.776 71.6314 13.568L76.3834 12.632V14.216L72.5194 15.008C71.7354 15.168 71.1514 15.392 70.7674 15.68C70.3834 15.968 70.1914 16.368 70.1914 16.88C70.1914 17.376 70.3834 17.784 70.7674 18.104C71.1674 18.408 71.7274 18.56 72.4474 18.56C72.9114 18.56 73.3514 18.504 73.7674 18.392C74.1994 18.264 74.5834 18.08 74.9194 17.84C75.2554 17.584 75.5194 17.272 75.7114 16.904C75.9034 16.52 75.9994 16.072 75.9994 15.56V12.248Z"
    fill="#050717" />
  <path
    d="M20 13V13C15.3671 14.7143 11.7143 18.3671 10 23V23V23C8.28567 18.3671 4.63291 14.7143 7.30857e-07 13V13V13C4.63291 11.2857 8.28567 7.6329 10 3V3V3C11.7143 7.63291 15.3671 11.2857 20 13V13Z"
    fill="#119D52" />
</svg>
